<svg width="65" height="32" viewBox="0 0 65 32" fill="none" xmlns="http://www.w3.org/2000/svg">
    <g filter="url(#filter0_if_6002_7948)">
        <path fill-rule="evenodd" clip-rule="evenodd" d="M41.928 29.7298C43.9286 30.1729 46.8644 30.2197 49.9709 28.2147L49.9719 28.214C50.3308 27.9824 50.6929 27.7229 51.0549 27.4333C54.011 25.0759 55.4747 21.743 55.4067 17.5283C55.3546 14.3082 54.3912 10.5518 52.5408 6.363C49.3874 -0.778762 44.4566 -7.44986 42.04 -10.2653L37.9309 -7.48757C40.0167 -5.05642 44.7393 1.2996 47.6745 7.9466C49.2818 11.5886 50.1199 14.7736 50.1618 17.4131C50.2074 20.2803 49.332 22.3904 47.4844 23.8644C46.5196 24.6354 45.0039 25.6077 42.9965 25.1644C42.0632 24.9587 41.1281 24.4953 40.2136 23.8597C40.2902 23.217 40.3549 22.5578 40.4084 21.8831C40.412 21.8475 40.4136 21.8116 40.4142 21.7765C40.4199 21.6078 40.5246 17.5813 39.8903 12.6938C39.007 5.88621 37.153 0.893173 34.3809 -2.14531C32.7254 -3.96132 29.8505 -4.42877 27.6951 -3.23133C26.3511 -2.48492 24.6776 -0.90083 24.3312 2.41304C24.017 5.42311 24.8022 9.33542 26.7342 14.3735C26.7561 14.432 26.7812 14.4884 26.8082 14.5452L26.8094 14.5476C26.8886 14.711 28.4026 17.8324 30.8789 21.1933C32.1162 22.8736 33.3735 24.317 34.6457 25.5193C33.4221 32.1734 30.7911 35.4666 28.4152 35.7697C26.254 36.0447 23.6655 33.8457 21.8227 30.1666C18.8428 24.2198 18.8308 17.7634 19.3392 13.4124L21.9678 16.6218L26.1516 13.9328L20.2097 6.67807C20.0166 6.27696 19.702 5.91757 19.2852 5.64868C18.3529 5.04727 17.1211 5.0327 16.2234 5.61208L5.91855 12.2631L9.0889 16.1191L14.0871 12.8931C13.524 17.8299 13.6034 25.0717 17.0531 31.9556C18.4469 34.7396 20.1836 36.9057 22.2137 38.3937C24.4526 40.0359 26.9198 40.7393 29.3497 40.4301C31.4677 40.1603 34.5008 38.9774 36.9234 34.8744C37.9216 33.1829 38.7208 31.1597 39.3146 28.8227C40.1816 29.2331 41.0537 29.5359 41.928 29.7298ZM35.1475 18.5895C33.5215 16.3746 32.2626 14.1574 31.6526 12.9091L31.6545 12.9094C29.6233 7.58725 29.3913 4.60283 29.5553 3.03351C29.6663 1.96605 29.9923 1.2018 30.4779 0.86113C33.9096 4.76777 34.9482 13.3457 35.1475 18.5895Z" fill="#5A59F2" fill-opacity="0.4"/>
    </g>
    <defs>
        <filter id="filter0_if_6002_7948" x="4.01858" y="-12.1653" width="53.2904" height="55.6665" filterUnits="userSpaceOnUse" color-interpolation-filters="sRGB">
            <feFlood flood-opacity="0" result="BackgroundImageFix"/>
            <feBlend mode="normal" in="SourceGraphic" in2="BackgroundImageFix" result="shape"/>
            <feColorMatrix in="SourceAlpha" type="matrix" values="0 0 0 0 0 0 0 0 0 0 0 0 0 0 0 0 0 0 127 0" result="hardAlpha"/>
            <feOffset dy="3"/>
            <feGaussianBlur stdDeviation="1.5"/>
            <feComposite in2="hardAlpha" operator="arithmetic" k2="-1" k3="1"/>
            <feColorMatrix type="matrix" values="0 0 0 0 0 0 0 0 0 0 0 0 0 0 0 0 0 0 0.25 0"/>
            <feBlend mode="normal" in2="shape" result="effect1_innerShadow_6002_7948"/>
            <feGaussianBlur stdDeviation="0.95" result="effect2_foregroundBlur_6002_7948"/>
        </filter>
    </defs>
</svg>
