<svg width="24" height="24" viewBox="0 0 24 24" fill="none" xmlns="http://www.w3.org/2000/svg">
<path d="M18.9342 14.98C18.6358 14.5033 18.4775 13.9524 18.4772 13.39V9.22602C18.4772 7.50822 17.7948 5.86077 16.5801 4.64609C15.3654 3.43142 13.718 2.74902 12.0002 2.74902C10.2824 2.74902 8.63492 3.43142 7.42024 4.64609C6.20557 5.86077 5.52317 7.50822 5.52317 9.22602V13.388C5.52325 13.9511 5.36488 14.5028 5.06617 14.98L3.97817 16.72C3.88357 16.8714 3.8312 17.0453 3.82652 17.2238C3.82183 17.4022 3.865 17.5787 3.95153 17.7348C4.03806 17.8909 4.16481 18.021 4.31861 18.1116C4.47242 18.2022 4.64767 18.25 4.82617 18.25H19.1742C19.3527 18.25 19.5279 18.2022 19.6817 18.1116C19.8355 18.021 19.9623 17.8909 20.0488 17.7348C20.1354 17.5787 20.1785 17.4022 20.1738 17.2238C20.1691 17.0453 20.1168 16.8714 20.0222 16.72L18.9342 14.98Z" stroke="#2A2A2A" stroke-width="1.5" stroke-linecap="round" stroke-linejoin="round"/>
<path d="M10 21.25H14" stroke="#2A2A2A" stroke-width="1.5" stroke-linecap="round"/>
</svg>
