<svg width="24" height="24" viewBox="0 0 24 24" fill="none" xmlns="http://www.w3.org/2000/svg">
<path d="M16.9427 2.41805L15.7757 2.06705C15.1364 1.87428 14.4489 1.92068 13.8413 2.19761C13.2337 2.47454 12.7476 2.96308 12.4737 3.57205L11.5717 5.57805C11.3363 6.10186 11.2707 6.68623 11.3842 7.24919C11.4978 7.81215 11.7847 8.32544 12.2047 8.71705L13.6997 10.1101C13.7434 10.1508 13.7711 10.2057 13.7777 10.2651C13.8217 10.6621 13.5527 11.4351 12.9317 12.5101C12.4817 13.2911 12.0727 13.8401 11.7257 14.1471C11.4827 14.3621 11.3497 14.4081 11.2927 14.3921L9.28274 13.7771C8.73383 13.6092 8.14614 13.6172 7.60205 13.8001C7.05795 13.9831 6.58474 14.3317 6.24874 14.7971L4.96874 16.5731C4.57906 17.113 4.39855 17.776 4.46071 18.439C4.52287 19.102 4.82348 19.7199 5.30674 20.1781L6.19374 21.0181C6.66397 21.4634 7.24152 21.7793 7.87012 21.9351C8.49873 22.0909 9.15697 22.0812 9.78074 21.9071C12.5347 21.1381 15.0037 18.8141 17.2157 14.9831C19.4297 11.1471 20.2077 7.84305 19.4897 5.07005C19.3286 4.44639 19.0095 3.87476 18.5632 3.41025C18.1169 2.94575 17.5595 2.60404 16.9427 2.41805ZM16.5087 3.85505C16.8788 3.96636 17.2141 4.17113 17.482 4.44962C17.75 4.72811 17.9417 5.07094 18.0387 5.44505C18.6407 7.77705 17.9517 10.7061 15.9157 14.2331C13.8817 17.7551 11.6927 19.8161 9.37574 20.4631C9.00146 20.5674 8.60652 20.5731 8.22939 20.4795C7.85226 20.386 7.5058 20.1963 7.22374 19.9291L6.33774 19.0891C6.11792 18.8808 5.98116 18.5999 5.95283 18.2985C5.92451 17.997 6.00656 17.6956 6.18374 17.4501L7.46374 15.6751C7.61648 15.4633 7.83171 15.3046 8.07921 15.2214C8.32672 15.1382 8.59407 15.1346 8.84374 15.2111L10.8587 15.8281C12.0287 16.1761 13.0897 15.2351 14.2297 13.2601C14.9997 11.9301 15.3577 10.9001 15.2677 10.0991C15.2217 9.68305 15.0277 9.29905 14.7227 9.01305L13.2277 7.62005C13.0369 7.44195 12.9066 7.20856 12.8551 6.95264C12.8036 6.69671 12.8336 6.4311 12.9407 6.19305L13.8417 4.18705C13.9662 3.91024 14.1872 3.68819 14.4634 3.56233C14.7396 3.43647 15.0521 3.4154 15.3427 3.50305L16.5087 3.85505Z" fill="#5A59F2"/>
</svg>
