<svg width="24" height="24" viewBox="0 0 24 24" fill="none" xmlns="http://www.w3.org/2000/svg">
<path d="M9.33333 9.33333V6.84444C9.33333 5.84889 9.33333 5.35111 9.52711 4.97067C9.69778 4.63556 9.96889 4.36444 10.304 4.19378C10.6844 4 11.1822 4 12.1778 4H17.1556C18.1511 4 18.6489 4 19.0293 4.19378C19.3638 4.36422 19.6358 4.63617 19.8062 4.97067C20 5.35111 20 5.84889 20 6.84444V11.8222C20 12.8178 20 13.3156 19.8062 13.696C19.6358 14.0305 19.3638 14.3024 19.0293 14.4729C18.6489 14.6667 18.1511 14.6667 17.1582 14.6667H14.6667M9.33333 9.33333H6.84444C5.84889 9.33333 5.35111 9.33333 4.97067 9.52711C4.63617 9.69755 4.36422 9.9695 4.19378 10.304C4 10.6844 4 11.1822 4 12.1778V17.1556C4 18.1511 4 18.6489 4.19378 19.0293C4.36422 19.3638 4.63617 19.6358 4.97067 19.8062C5.35022 20 5.848 20 6.84178 20H11.8258C12.8187 20 13.3156 20 13.696 19.8062C14.0305 19.6358 14.3024 19.3638 14.4729 19.0293C14.6667 18.6489 14.6667 18.152 14.6667 17.1582V14.6667M9.33333 9.33333H11.8222C12.8178 9.33333 13.3156 9.33333 13.696 9.52711C14.0305 9.69755 14.3024 9.9695 14.4729 10.304C14.6667 10.6836 14.6667 11.1813 14.6667 12.1751V14.6667" stroke="#5A59F2" stroke-width="1.5" stroke-linecap="round" stroke-linejoin="round"/>
</svg>
