<svg width="24" height="24" viewBox="0 0 24 24" fill="none" xmlns="http://www.w3.org/2000/svg">
<path d="M15.7676 9.30862C15.9063 9.16506 15.983 8.9728 15.9813 8.77323C15.9795 8.57366 15.8995 8.38276 15.7584 8.24164C15.6172 8.10052 15.4263 8.02047 15.2268 8.01873C15.0272 8.017 14.8349 8.09372 14.6914 8.23237L12 10.9238L9.30862 8.23237C9.2384 8.15967 9.15442 8.10168 9.06155 8.06179C8.96869 8.0219 8.86882 8.00091 8.76775 8.00003C8.66669 7.99915 8.56646 8.01841 8.47292 8.05668C8.37938 8.09495 8.2944 8.15147 8.22293 8.22293C8.15147 8.2944 8.09495 8.37938 8.05668 8.47292C8.01841 8.56646 7.99915 8.66669 8.00003 8.76775C8.00091 8.86882 8.0219 8.96869 8.06179 9.06155C8.10168 9.15442 8.15967 9.2384 8.23237 9.30862L10.9238 12L8.23237 14.6914C8.15967 14.7616 8.10168 14.8456 8.06179 14.9384C8.0219 15.0313 8.00091 15.1312 8.00003 15.2322C7.99915 15.3333 8.01841 15.4335 8.05668 15.5271C8.09495 15.6206 8.15147 15.7056 8.22293 15.7771C8.2944 15.8485 8.37938 15.905 8.47292 15.9433C8.56646 15.9816 8.66669 16.0008 8.76775 16C8.86882 15.9991 8.96869 15.9781 9.06155 15.9382C9.15442 15.8983 9.2384 15.8403 9.30862 15.7676L12 13.0762L14.6914 15.7676C14.7616 15.8403 14.8456 15.8983 14.9384 15.9382C15.0313 15.9781 15.1312 15.9991 15.2322 16C15.3333 16.0008 15.4335 15.9816 15.5271 15.9433C15.6206 15.905 15.7056 15.8485 15.7771 15.7771C15.8485 15.7056 15.905 15.6206 15.9433 15.5271C15.9816 15.4335 16.0008 15.3333 16 15.2322C15.9991 15.1312 15.9781 15.0313 15.9382 14.9384C15.8983 14.8456 15.8403 14.7616 15.7676 14.6914L13.0762 12L15.7676 9.30862Z" fill="#B3B3B3"/>
</svg>
