<svg width="24" height="24" viewBox="0 0 24 24" fill="none" xmlns="http://www.w3.org/2000/svg">
<path fill-rule="evenodd" clip-rule="evenodd" d="M12.3763 15.3764C12.1888 15.5639 11.9345 15.6692 11.6693 15.6692C11.4041 15.6692 11.1498 15.5639 10.9623 15.3764L5.30529 9.7194C5.20978 9.62716 5.1336 9.51681 5.08119 9.39481C5.02878 9.2728 5.00119 9.14158 5.00004 9.0088C4.99888 8.87603 5.02419 8.74435 5.07447 8.62145C5.12475 8.49855 5.199 8.3869 5.29289 8.29301C5.38679 8.19912 5.49844 8.12486 5.62133 8.07458C5.74423 8.0243 5.87591 7.999 6.00869 8.00015C6.14147 8.00131 6.27269 8.02889 6.39469 8.0813C6.5167 8.13371 6.62704 8.20989 6.71929 8.3054L11.6693 13.2554L16.6193 8.3054C16.8079 8.12324 17.0605 8.02245 17.3227 8.02473C17.5849 8.02701 17.8357 8.13218 18.0211 8.31758C18.2065 8.50299 18.3117 8.75381 18.314 9.016C18.3162 9.2782 18.2154 9.5308 18.0333 9.7194L12.3763 15.3764Z" fill="#2A2A2A"/>
</svg>
