<svg width="24" height="24" viewBox="0 0 24 24" fill="none" xmlns="http://www.w3.org/2000/svg">
<path d="M5 10.2V5.8C5 5.58783 5.08429 5.38434 5.23431 5.23431C5.38434 5.08429 5.58783 5 5.8 5H10.2C10.4122 5 10.6157 5.08429 10.7657 5.23431C10.9157 5.38434 11 5.58783 11 5.8V10.2C11 10.4122 10.9157 10.6157 10.7657 10.7657C10.6157 10.9157 10.4122 11 10.2 11H5.8C5.58783 11 5.38434 10.9157 5.23431 10.7657C5.08429 10.6157 5 10.4122 5 10.2ZM13 10.2V5.8C13 5.58783 13.0843 5.38434 13.2343 5.23431C13.3843 5.08429 13.5878 5 13.8 5H18.2C18.4122 5 18.6157 5.08429 18.7657 5.23431C18.9157 5.38434 19 5.58783 19 5.8V10.2C19 10.4122 18.9157 10.6157 18.7657 10.7657C18.6157 10.9157 18.4122 11 18.2 11H13.8C13.5878 11 13.3843 10.9157 13.2343 10.7657C13.0843 10.6157 13 10.4122 13 10.2ZM13 18.2V13.8C13 13.5878 13.0843 13.3843 13.2343 13.2343C13.3843 13.0843 13.5878 13 13.8 13H18.2C18.4122 13 18.6157 13.0843 18.7657 13.2343C18.9157 13.3843 19 13.5878 19 13.8V18.2C19 18.4122 18.9157 18.6157 18.7657 18.7657C18.6157 18.9157 18.4122 19 18.2 19H13.8C13.5878 19 13.3843 18.9157 13.2343 18.7657C13.0843 18.6157 13 18.4122 13 18.2ZM5 18.2V13.8C5 13.5878 5.08429 13.3843 5.23431 13.2343C5.38434 13.0843 5.58783 13 5.8 13H10.2C10.4122 13 10.6157 13.0843 10.7657 13.2343C10.9157 13.3843 11 13.5878 11 13.8V18.2C11 18.4122 10.9157 18.6157 10.7657 18.7657C10.6157 18.9157 10.4122 19 10.2 19H5.8C5.58783 19 5.38434 18.9157 5.23431 18.7657C5.08429 18.6157 5 18.4122 5 18.2Z" fill="#2A2A2A"/>
</svg>
