<svg width="18" height="18" viewBox="0 0 18 18" fill="none" xmlns="http://www.w3.org/2000/svg">
<path d="M7.33328 13.625L5.85828 15.0583C5.4715 15.4451 4.94693 15.6624 4.39995 15.6624C3.85296 15.6624 3.32839 15.4451 2.94161 15.0583C2.55484 14.6716 2.33755 14.147 2.33755 13.6C2.33755 13.053 2.55484 12.5284 2.94161 12.1417L6.72495 8.35C7.09629 7.97745 7.59663 7.7619 8.12246 7.74794C8.64828 7.73398 9.15936 7.92268 9.54995 8.275L9.64995 8.35833C9.80797 8.51304 10.021 8.59864 10.2421 8.59629C10.4633 8.59395 10.6744 8.50386 10.8291 8.34583C10.9838 8.18781 11.0694 7.97479 11.0671 7.75366C11.0647 7.53252 10.9746 7.32137 10.8166 7.16666C10.7693 7.10606 10.7193 7.04766 10.6666 6.99166C9.95524 6.37276 9.03522 6.04737 8.09292 6.08141C7.15061 6.11545 6.25647 6.50638 5.59161 7.175L1.75828 10.9667C1.10691 11.6757 0.754629 12.6089 0.775007 13.5715C0.795386 14.534 1.18685 15.4515 1.86764 16.1323C2.54843 16.8131 3.46591 17.2046 4.42848 17.2249C5.39106 17.2453 6.32428 16.893 7.03328 16.2417L8.47495 14.8333C8.61729 14.678 8.69554 14.4746 8.69395 14.2639C8.69236 14.0533 8.61105 13.851 8.46637 13.6979C8.3217 13.5448 8.12439 13.4522 7.91417 13.4386C7.70394 13.4251 7.49639 13.4917 7.33328 13.625ZM16.2416 1.75833C15.5406 1.06167 14.5924 0.670654 13.6041 0.670654C12.6158 0.670654 11.6676 1.06167 10.9666 1.75833L9.52495 3.16666C9.3826 3.32196 9.30435 3.5254 9.30594 3.73605C9.30753 3.94671 9.38884 4.14894 9.53352 4.30207C9.6782 4.45519 9.8755 4.54784 10.0857 4.56137C10.296 4.5749 10.5035 4.50831 10.6666 4.375L12.1083 2.94166C12.4951 2.55489 13.0196 2.3376 13.5666 2.3376C14.1136 2.3376 14.6382 2.55489 15.0249 2.94166C15.4117 3.32844 15.629 3.85302 15.629 4.4C15.629 4.94698 15.4117 5.47156 15.0249 5.85833L11.2416 9.65C10.8703 10.0225 10.3699 10.2381 9.8441 10.2521C9.31827 10.266 8.8072 10.0773 8.41661 9.725L8.31661 9.64166C8.15859 9.48695 7.94558 9.40136 7.72444 9.4037C7.5033 9.40604 7.29216 9.49614 7.13745 9.65416C6.98274 9.81219 6.89714 10.0252 6.89948 10.2463C6.90183 10.4675 6.99192 10.6786 7.14995 10.8333C7.21076 10.8949 7.27474 10.9534 7.34161 11.0083C8.05384 11.6254 8.97347 11.9495 9.9152 11.9155C10.8569 11.8815 11.7508 11.4918 12.4166 10.825L16.2083 7.03333C16.9094 6.33673 17.3064 5.39102 17.3127 4.4027C17.3189 3.41439 16.9339 2.46374 16.2416 1.75833Z" fill="#666666"/>
</svg>
