<svg width="24" height="24" viewBox="0 0 24 24" fill="none" xmlns="http://www.w3.org/2000/svg">
<path d="M2.77719 19.783L3.38419 15.621C3.42119 15.349 3.54519 15.096 3.73919 14.901L15.5002 3.124C15.6524 2.96956 15.842 2.85702 16.0504 2.79728C16.2589 2.73755 16.4793 2.73262 16.6902 2.783C17.7699 3.08146 18.7486 3.66686 19.5222 4.477C20.3301 5.25595 20.9114 6.23958 21.2042 7.323C21.2546 7.53393 21.2496 7.75429 21.1899 7.96276C21.1302 8.17123 21.0176 8.36076 20.8632 8.513L9.08919 20.275C8.89391 20.4685 8.6407 20.5928 8.36819 20.629L4.20719 21.236C4.01063 21.2647 3.81008 21.2466 3.62181 21.1833C3.43354 21.12 3.26284 21.0132 3.12355 20.8715C2.98427 20.7299 2.88032 20.5575 2.82014 20.3682C2.75997 20.1789 2.74525 19.978 2.77719 19.782M13.2752 5.364L18.6382 10.727" stroke="#2A2A2A" stroke-width="1.5" stroke-linecap="round" stroke-linejoin="round"/>
</svg>
