<svg width="24" height="24" viewBox="0 0 24 24" fill="none" xmlns="http://www.w3.org/2000/svg">
<path d="M16.0969 9.96354C16.3005 9.96354 16.4712 9.89421 16.6091 9.75558C16.7468 9.6171 16.8156 9.44542 16.8156 9.24048C16.8156 9.03573 16.7468 8.86544 16.6091 8.72969C16.4712 8.59394 16.3005 8.52604 16.0969 8.52604H12.0719C11.8682 8.52604 11.6975 8.59538 11.5599 8.734C11.422 8.87248 11.3531 9.04417 11.3531 9.2491C11.3531 9.45385 11.422 9.62415 11.5599 9.7599C11.6975 9.89564 11.8682 9.96354 12.0719 9.96354H16.0969ZM16.0969 15.474C16.3005 15.474 16.4712 15.4046 16.6091 15.266C16.7468 15.1275 16.8156 14.9558 16.8156 14.7509C16.8156 14.5461 16.7468 14.3759 16.6091 14.2401C16.4712 14.1044 16.3005 14.0365 16.0969 14.0365H12.0719C11.8682 14.0365 11.6975 14.1058 11.5599 14.2444C11.422 14.3829 11.3531 14.5546 11.3531 14.7595C11.3531 14.9643 11.422 15.1346 11.5599 15.2703C11.6975 15.4061 11.8682 15.474 12.0719 15.474H16.0969ZM8.8375 10.4906C9.1801 10.4906 9.47345 10.3686 9.71749 10.1245C9.96139 9.88065 10.0833 9.5874 10.0833 9.24479C10.0833 8.90219 9.96139 8.60894 9.71749 8.36504C9.47345 8.121 9.1801 7.99896 8.8375 7.99896C8.4949 7.99896 8.20155 8.121 7.95751 8.36504C7.71361 8.60894 7.59167 8.90219 7.59167 9.24479C7.59167 9.5874 7.71361 9.88065 7.95751 10.1245C8.20155 10.3686 8.4949 10.4906 8.8375 10.4906ZM8.8375 16.001C9.1801 16.001 9.47345 15.8791 9.71749 15.6352C9.96139 15.3912 10.0833 15.0978 10.0833 14.7552C10.0833 14.4126 9.96139 14.1193 9.71749 13.8752C9.47345 13.6313 9.1801 13.5094 8.8375 13.5094C8.4949 13.5094 8.20155 13.6313 7.95751 13.8752C7.71361 14.1193 7.59167 14.4126 7.59167 14.7552C7.59167 15.0978 7.71361 15.3912 7.95751 15.6352C8.20155 15.8791 8.4949 16.001 8.8375 16.001ZM4.8125 20.625C4.42917 20.625 4.09375 20.4813 3.80625 20.1938C3.51875 19.9062 3.375 19.5708 3.375 19.1875V4.8125C3.375 4.42917 3.51875 4.09375 3.80625 3.80625C4.09375 3.51875 4.42917 3.375 4.8125 3.375H19.1875C19.5708 3.375 19.9062 3.51875 20.1938 3.80625C20.4813 4.09375 20.625 4.42917 20.625 4.8125V19.1875C20.625 19.5708 20.4813 19.9062 20.1938 20.1938C19.9062 20.4813 19.5708 20.625 19.1875 20.625H4.8125ZM4.8125 19.1875H19.1875V4.8125H4.8125V19.1875Z" fill="#2A2A2A"/>
</svg>
