<svg width="24" height="24" viewBox="0 0 24 24" fill="none" xmlns="http://www.w3.org/2000/svg">
<path fill-rule="evenodd" clip-rule="evenodd" d="M15.7072 10.6237C15.8947 10.8112 16 11.0655 16 11.3307C16 11.5959 15.8947 11.8502 15.7072 12.0377L10.0502 17.6947C9.95797 17.7902 9.84762 17.8664 9.72562 17.9188C9.60361 17.9712 9.47239 17.9988 9.33961 18C9.20684 18.0011 9.07516 17.9758 8.95226 17.9255C8.82936 17.8753 8.71771 17.801 8.62382 17.7071C8.52993 17.6132 8.45567 17.5016 8.40539 17.3787C8.35511 17.2558 8.32981 17.1241 8.33096 16.9913C8.33212 16.8585 8.3597 16.7273 8.41211 16.6053C8.46452 16.4833 8.5407 16.373 8.63621 16.2807L13.5862 11.3307L8.63621 6.38071C8.45406 6.19211 8.35326 5.93951 8.35554 5.67731C8.35782 5.41511 8.46299 5.1643 8.6484 4.97889C8.8338 4.79349 9.08462 4.68831 9.34681 4.68604C9.60901 4.68376 9.86161 4.78455 10.0502 4.96671L15.7072 10.6237Z" fill="#2A2A2A"/>
</svg>
