<svg width="24" height="24" viewBox="0 0 24 24" fill="none" xmlns="http://www.w3.org/2000/svg">
<path fill-rule="evenodd" clip-rule="evenodd" d="M12.8089 9.23423C12.6358 9.08425 12.401 9 12.1563 9C11.9115 9 11.6768 9.08425 11.5037 9.23423L6.2818 13.7598C6.19364 13.8336 6.12332 13.9219 6.07494 14.0195C6.02656 14.1171 6.0011 14.2221 6.00004 14.3283C5.99897 14.4345 6.02233 14.5399 6.06874 14.6382C6.11515 14.7365 6.18369 14.8258 6.27036 14.9009C6.35703 14.9761 6.4601 15.0355 6.57354 15.0757C6.68698 15.1159 6.80853 15.1362 6.9311 15.1352C7.05366 15.1343 7.17479 15.1122 7.28741 15.0703C7.40003 15.0284 7.50188 14.9674 7.58704 14.891L12.1563 10.931L16.7255 14.891C16.8996 15.0368 17.1328 15.1174 17.3748 15.1156C17.6168 15.1137 17.8483 15.0296 18.0195 14.8813C18.1906 14.733 18.2877 14.5323 18.2898 14.3225C18.2919 14.1128 18.1989 13.9107 18.0307 13.7598L12.8089 9.23423Z" fill="#2A2A2A"/>
</svg>
