<svg width="16" height="17" viewBox="0 0 16 17" fill="none" xmlns="http://www.w3.org/2000/svg">
<path d="M7.99967 12.4425C8.19037 12.4425 8.35023 12.3779 8.47926 12.2489C8.60828 12.1199 8.6728 11.96 8.6728 11.7693C8.6728 11.5786 8.60828 11.4188 8.47926 11.2897C8.35023 11.1609 8.19037 11.0964 7.99967 11.0964C7.80898 11.0964 7.64912 11.1609 7.52009 11.2897C7.39106 11.4188 7.32655 11.5786 7.32655 11.7693C7.32655 11.96 7.39106 12.1199 7.52009 12.2489C7.64912 12.3779 7.80898 12.4425 7.99967 12.4425ZM7.99988 9.39766C8.17711 9.39766 8.32551 9.33773 8.44509 9.21787C8.56481 9.09815 8.62467 8.94975 8.62467 8.77266V5.02266C8.62467 4.84558 8.56474 4.69711 8.44488 4.57725C8.32502 4.45752 8.17655 4.39766 7.99947 4.39766C7.82224 4.39766 7.67384 4.45752 7.55426 4.57725C7.43454 4.69711 7.37467 4.84558 7.37467 5.02266V8.77266C7.37467 8.94975 7.43461 9.09815 7.55447 9.21787C7.67433 9.33773 7.8228 9.39766 7.99988 9.39766ZM8.00113 16.4168C6.90613 16.4168 5.8769 16.2091 4.91342 15.7935C3.94995 15.3779 3.1119 14.814 2.39926 14.1016C1.68662 13.3893 1.12238 12.5516 0.706549 11.5885C0.290855 10.6254 0.0830078 9.59648 0.0830078 8.50162C0.0830078 7.40662 0.290786 6.37738 0.706341 5.41391C1.1219 4.45044 1.68586 3.61238 2.39822 2.89975C3.11058 2.18711 3.94829 1.62287 4.91134 1.20704C5.8744 0.791343 6.90335 0.583496 7.99822 0.583496C9.09322 0.583496 10.1225 0.791274 11.0859 1.20683C12.0494 1.62238 12.8875 2.18634 13.6001 2.8987C14.3127 3.61107 14.877 4.44877 15.2928 5.41183C15.7085 6.37489 15.9163 7.40384 15.9163 8.4987C15.9163 9.5937 15.7086 10.6229 15.293 11.5864C14.8775 12.5499 14.3135 13.3879 13.6011 14.1006C12.8888 14.8132 12.0511 15.3775 11.088 15.7933C10.125 16.209 9.09599 16.4168 8.00113 16.4168ZM7.99967 15.1668C9.86079 15.1668 11.4372 14.521 12.7288 13.2293C14.0205 11.9377 14.6663 10.3613 14.6663 8.50016C14.6663 6.63905 14.0205 5.06266 12.7288 3.771C11.4372 2.47933 9.86079 1.8335 7.99967 1.8335C6.13856 1.8335 4.56217 2.47933 3.27051 3.771C1.97884 5.06266 1.33301 6.63905 1.33301 8.50016C1.33301 10.3613 1.97884 11.9377 3.27051 13.2293C4.56217 14.521 6.13856 15.1668 7.99967 15.1668Z" fill="#ff3a3a"/>
</svg>
