<svg width="30" height="30" viewBox="0 0 30 30" fill="none" xmlns="http://www.w3.org/2000/svg">
<rect width="30" height="30" rx="15" transform="matrix(1 -8.74228e-08 -8.74228e-08 -1 0 30)" fill="#CCCCCC"/>
<path fill-rule="evenodd" clip-rule="evenodd" d="M11.293 14.2927C11.1056 14.4802 11.0002 14.7345 11.0002 14.9997C11.0002 15.2648 11.1056 15.5191 11.293 15.7067L16.95 21.3637C17.0423 21.4592 17.1526 21.5353 17.2746 21.5878C17.3966 21.6402 17.5278 21.6678 17.6606 21.6689C17.7934 21.6701 17.9251 21.6448 18.048 21.5945C18.1709 21.5442 18.2825 21.4699 18.3764 21.3761C18.4703 21.2822 18.5446 21.1705 18.5949 21.0476C18.6451 20.9247 18.6704 20.793 18.6693 20.6603C18.6681 20.5275 18.6405 20.3963 18.5881 20.2743C18.5357 20.1522 18.4595 20.0419 18.364 19.9497L13.414 14.9997L18.364 10.0497C18.5462 9.86105 18.647 9.60845 18.6447 9.34626C18.6424 9.08406 18.5373 8.83325 18.3518 8.64784C18.1664 8.46243 17.9156 8.35726 17.6534 8.35498C17.3912 8.3527 17.1386 8.4535 16.95 8.63566L11.293 14.2927Z" fill="#2A2A2A"/>
</svg>
