<svg width="30" height="30" viewBox="0 0 30 30" fill="none" xmlns="http://www.w3.org/2000/svg">
<rect x="30" y="30" width="30" height="30" rx="15" transform="rotate(-180 30 30)" fill="#CCCCCC"/>
<path fill-rule="evenodd" clip-rule="evenodd" d="M18.707 14.2927C18.8944 14.4802 18.9998 14.7345 18.9998 14.9997C18.9998 15.2648 18.8944 15.5191 18.707 15.7067L13.05 21.3637C12.9577 21.4592 12.8474 21.5353 12.7254 21.5878C12.6034 21.6402 12.4722 21.6678 12.3394 21.6689C12.2066 21.6701 12.0749 21.6448 11.952 21.5945C11.8291 21.5442 11.7175 21.4699 11.6236 21.3761C11.5297 21.2822 11.4554 21.1705 11.4051 21.0476C11.3549 20.9247 11.3296 20.793 11.3307 20.6603C11.3319 20.5275 11.3595 20.3963 11.4119 20.2743C11.4643 20.1522 11.5405 20.0419 11.636 19.9497L16.586 14.9997L11.636 10.0497C11.4538 9.86105 11.353 9.60845 11.3553 9.34626C11.3576 9.08406 11.4627 8.83325 11.6482 8.64784C11.8336 8.46243 12.0844 8.35726 12.3466 8.35498C12.6088 8.3527 12.8614 8.4535 13.05 8.63566L18.707 14.2927Z" fill="#2A2A2A"/>
</svg>
