<svg width="20" height="20" viewBox="0 0 20 20" fill="none" xmlns="http://www.w3.org/2000/svg">
<path fill-rule="evenodd" clip-rule="evenodd" d="M9.25902 14.968C9.69236 15.4603 10.4596 16.0114 11.7188 16.0114H11.7192C11.8647 16.0114 12.0171 16.0041 12.176 15.9883C13.4721 15.8607 14.5855 15.1828 15.4851 13.974C16.1725 13.0504 16.7352 11.8077 17.1573 10.2797C17.8772 7.67483 18.024 4.87792 17.997 3.63604L16.3041 3.67169C16.3271 4.74389 16.1938 7.41323 15.5238 9.8377C15.1564 11.1659 14.6849 12.2235 14.1213 12.9804C13.509 13.8026 12.8178 14.2412 12.0076 14.3211C11.5842 14.3632 10.9711 14.3615 10.536 13.8679C10.3337 13.6385 10.1869 13.3357 10.0831 12.9877C10.2434 12.8193 10.404 12.6441 10.5651 12.4624C10.5738 12.4529 10.582 12.443 10.5899 12.4332C10.6281 12.3863 11.5325 11.2626 12.4287 9.75909C13.6771 7.66495 14.2733 5.90802 14.2007 4.5377C14.1578 3.71895 13.4982 3.05956 12.6667 3.00458C12.1482 2.97021 11.3602 3.11326 10.5469 3.99043C9.80829 4.78728 9.16436 6.04162 8.57904 7.82561C8.5721 7.84623 8.56645 7.86685 8.56124 7.8879L8.56102 7.88881C8.54642 7.94976 8.26773 9.1131 8.19173 10.5207C8.15352 11.2243 8.17219 11.8644 8.24731 12.4387C6.47443 14.1033 5.06065 14.5561 4.36548 14.2068C3.73328 13.889 3.52659 12.7906 3.83966 11.4086C4.34535 9.17472 5.74797 7.33989 6.82997 6.19803L6.82727 7.59049L8.52068 7.59371L8.52679 4.44602C8.56298 4.29677 8.55793 4.13711 8.5061 3.98442C8.39016 3.64291 8.06711 3.41309 7.70325 3.41309H3.52616V5.08841H5.55218C4.32814 6.38656 2.77237 8.45665 2.18706 11.0426C1.94998 12.0882 1.93826 13.0212 2.15189 13.8155C2.38723 14.6918 2.88744 15.3435 3.59824 15.7009C4.21785 16.0123 5.27862 16.2322 6.81355 15.5114C7.44619 15.2142 8.09838 14.7863 8.76445 14.2317C8.9047 14.5071 9.0697 14.7528 9.25902 14.968ZM9.88905 10.5637C9.94072 9.6371 10.0901 8.7771 10.2004 8.31102L10.2008 8.31145C10.8217 6.42866 11.4101 5.53902 11.7952 5.12363C12.0571 4.84098 12.3098 4.68376 12.5125 4.67602C12.5707 6.41362 10.978 9.03871 9.88905 10.5637Z" fill="#5A59F2"/>
</svg>
