<svg width="20" height="20" viewBox="0 0 20 20" fill="none" xmlns="http://www.w3.org/2000/svg">
<path d="M9.99988 2.08325C10.98 2.08295 11.9343 2.39683 12.7229 2.97881C13.5115 3.56079 14.0927 4.38023 14.3814 5.31685C14.67 6.25348 14.6508 7.25795 14.3265 8.18285C14.0023 9.10775 13.3901 9.90435 12.5799 10.4558C13.9863 10.9716 15.2061 11.8965 16.0823 13.1115C16.9585 14.3265 17.4511 15.7759 17.4965 17.2733C17.5008 17.3564 17.4884 17.4395 17.4601 17.5177C17.4318 17.596 17.3881 17.6678 17.3317 17.729C17.2753 17.7901 17.2072 17.8394 17.1315 17.8739C17.0557 17.9084 16.9739 17.9275 16.8907 17.9299C16.8075 17.9323 16.7247 17.9181 16.6471 17.8881C16.5694 17.8581 16.4986 17.8129 16.4387 17.7552C16.3787 17.6974 16.3309 17.6283 16.2981 17.5519C16.2653 17.4754 16.248 17.3931 16.2474 17.3099C16.1978 15.6861 15.5178 14.1455 14.3517 13.0144C13.1855 11.8834 11.6248 11.2508 10.0003 11.2508C8.37575 11.2508 6.81504 11.8834 5.6489 13.0144C4.48276 14.1455 3.80284 15.6861 3.75321 17.3099C3.74824 17.4757 3.67762 17.6327 3.55689 17.7464C3.43617 17.8601 3.27522 17.9211 3.10946 17.9162C2.9437 17.9112 2.78671 17.8406 2.67301 17.7199C2.55932 17.5991 2.49824 17.4382 2.50321 17.2724C2.54883 15.7753 3.04146 14.326 3.91768 13.1112C4.7939 11.8963 6.01362 10.9715 7.41988 10.4558C6.60962 9.90435 5.99744 9.10775 5.67321 8.18285C5.34898 7.25795 5.32976 6.25348 5.61839 5.31685C5.90701 4.38023 6.48827 3.56079 7.27684 2.97881C8.06542 2.39683 9.01979 2.08295 9.99988 2.08325ZM6.66654 6.66659C6.66654 7.55064 7.01773 8.39849 7.64286 9.02361C8.26798 9.64873 9.11582 9.99992 9.99988 9.99992C10.8839 9.99992 11.7318 9.64873 12.3569 9.02361C12.982 8.39849 13.3332 7.55064 13.3332 6.66659C13.3332 5.78253 12.982 4.93468 12.3569 4.30956C11.7318 3.68444 10.8839 3.33325 9.99988 3.33325C9.11582 3.33325 8.26798 3.68444 7.64286 4.30956C7.01773 4.93468 6.66654 5.78253 6.66654 6.66659Z" fill="#2A2A2A"/>
</svg>
