<svg width="20" height="20" viewBox="0 0 20 20" fill="none" xmlns="http://www.w3.org/2000/svg">
<path d="M13.4141 8.30295C13.5838 8.30295 13.726 8.24517 13.8409 8.12965C13.9556 8.01425 14.013 7.87118 14.013 7.7004C14.013 7.52978 13.9556 7.38786 13.8409 7.27474C13.726 7.16162 13.5838 7.10503 13.4141 7.10503H10.0599C9.89019 7.10503 9.74796 7.16281 9.63324 7.27833C9.51836 7.39373 9.46094 7.5368 9.46094 7.70759C9.46094 7.87821 9.51836 8.02012 9.63324 8.13325C9.74796 8.24637 9.89019 8.30295 10.0599 8.30295H13.4141ZM13.4141 12.895C13.5838 12.895 13.726 12.8372 13.8409 12.7217C13.9556 12.6063 14.013 12.4632 14.013 12.2924C14.013 12.1218 13.9556 11.9799 13.8409 11.8668C13.726 11.7536 13.5838 11.697 13.4141 11.697H10.0599C9.89019 11.697 9.74796 11.7548 9.63324 11.8703C9.51836 11.9857 9.46094 12.1288 9.46094 12.2996C9.46094 12.4702 9.51836 12.6121 9.63324 12.7253C9.74796 12.8384 9.89019 12.895 10.0599 12.895H13.4141ZM7.36458 8.74219C7.65009 8.74219 7.89454 8.64048 8.09791 8.43712C8.30115 8.23387 8.40278 7.9895 8.40278 7.70399C8.40278 7.41849 8.30115 7.17411 8.09791 6.97087C7.89454 6.7675 7.65009 6.6658 7.36458 6.6658C7.07908 6.6658 6.83462 6.7675 6.63126 6.97087C6.42801 7.17411 6.32639 7.41849 6.32639 7.70399C6.32639 7.9895 6.42801 8.23387 6.63126 8.43712C6.83462 8.64048 7.07908 8.74219 7.36458 8.74219ZM7.36458 13.3342C7.65009 13.3342 7.89454 13.2326 8.09791 13.0293C8.30115 12.826 8.40278 12.5815 8.40278 12.296C8.40278 12.0105 8.30115 11.766 8.09791 11.5627C7.89454 11.3594 7.65009 11.2578 7.36458 11.2578C7.07908 11.2578 6.83462 11.3594 6.63126 11.5627C6.42801 11.766 6.32639 12.0105 6.32639 12.296C6.32639 12.5815 6.42801 12.826 6.63126 13.0293C6.83462 13.2326 7.07908 13.3342 7.36458 13.3342ZM4.01042 17.1875C3.69097 17.1875 3.41146 17.0677 3.17188 16.8281C2.93229 16.5885 2.8125 16.309 2.8125 15.9896V4.01042C2.8125 3.69097 2.93229 3.41146 3.17188 3.17188C3.41146 2.93229 3.69097 2.8125 4.01042 2.8125H15.9896C16.309 2.8125 16.5885 2.93229 16.8281 3.17188C17.0677 3.41146 17.1875 3.69097 17.1875 4.01042V15.9896C17.1875 16.309 17.0677 16.5885 16.8281 16.8281C16.5885 17.0677 16.309 17.1875 15.9896 17.1875H4.01042ZM4.01042 15.9896H15.9896V4.01042H4.01042V15.9896Z" fill="#2A2A2A"/>
</svg>
