<svg width="20" height="20" viewBox="0 0 20 20" fill="none" xmlns="http://www.w3.org/2000/svg">
<path d="M14.167 18.3334C13.4725 18.3334 12.8823 18.0904 12.3962 17.6042C11.91 17.1181 11.667 16.5279 11.667 15.8334C11.667 15.7501 11.6878 15.5556 11.7295 15.2501L5.87533 11.8334C5.6531 12.0417 5.39616 12.2051 5.10449 12.3234C4.81283 12.4417 4.50033 12.5006 4.16699 12.5001C3.47255 12.5001 2.88227 12.257 2.39616 11.7709C1.91005 11.2848 1.66699 10.6945 1.66699 10.0001C1.66699 9.30564 1.91005 8.71536 2.39616 8.22925C2.88227 7.74314 3.47255 7.50008 4.16699 7.50008C4.50033 7.50008 4.81283 7.55925 5.10449 7.67758C5.39616 7.79592 5.6531 7.95897 5.87533 8.16675L11.7295 4.75008C11.7017 4.65286 11.6845 4.55925 11.6778 4.46925C11.6712 4.37925 11.6675 4.27841 11.667 4.16675C11.667 3.4723 11.91 2.88203 12.3962 2.39591C12.8823 1.9098 13.4725 1.66675 14.167 1.66675C14.8614 1.66675 15.4517 1.9098 15.9378 2.39591C16.4239 2.88203 16.667 3.4723 16.667 4.16675C16.667 4.86119 16.4239 5.45147 15.9378 5.93758C15.4517 6.42369 14.8614 6.66675 14.167 6.66675C13.8337 6.66675 13.5212 6.60758 13.2295 6.48925C12.9378 6.37091 12.6809 6.20786 12.4587 6.00008L6.60449 9.41675C6.63227 9.51397 6.64977 9.60786 6.65699 9.69841C6.66421 9.78897 6.66755 9.88953 6.66699 10.0001C6.66644 10.1106 6.6631 10.2115 6.65699 10.3026C6.65088 10.3937 6.63338 10.4873 6.60449 10.5834L12.4587 14.0001C12.6809 13.7917 12.9378 13.6287 13.2295 13.5109C13.5212 13.3931 13.8337 13.334 14.167 13.3334C14.8614 13.3334 15.4517 13.5765 15.9378 14.0626C16.4239 14.5487 16.667 15.139 16.667 15.8334C16.667 16.5279 16.4239 17.1181 15.9378 17.6042C15.4517 18.0904 14.8614 18.3334 14.167 18.3334Z" fill="#5A59F2"/>
</svg>
