<svg width="24" height="24" viewBox="0 0 24 24" fill="none" xmlns="http://www.w3.org/2000/svg">
<path d="M17 3H7C6.46957 3 5.96086 3.21071 5.58579 3.58579C5.21071 3.96086 5 4.46957 5 5V20.138C5.00003 20.2256 5.02305 20.3116 5.06676 20.3874C5.11047 20.4633 5.17334 20.5264 5.24907 20.5703C5.32481 20.6143 5.41075 20.6375 5.49831 20.6378C5.58587 20.6381 5.67197 20.6154 5.748 20.572L11.008 17.567C11.3101 17.3944 11.6521 17.3036 12 17.3036C12.3479 17.3036 12.6899 17.3944 12.992 17.567L18.252 20.573C18.3281 20.6165 18.4143 20.6392 18.5019 20.6388C18.5896 20.6385 18.6756 20.6151 18.7514 20.5711C18.8271 20.527 18.89 20.4638 18.9336 20.3878C18.9773 20.3118 19.0001 20.2256 19 20.138V5C19 4.46957 18.7893 3.96086 18.4142 3.58579C18.0391 3.21071 17.5304 3 17 3Z" stroke="#5A59F2" stroke-width="1.5" stroke-linecap="round" stroke-linejoin="round"/>
</svg>
