<svg width="24" height="24" viewBox="0 0 24 24" fill="none" xmlns="http://www.w3.org/2000/svg">
<path fill-rule="evenodd" clip-rule="evenodd" d="M7 2C6.20435 2 5.44129 2.31607 4.87868 2.87868C4.31607 3.44129 4 4.20435 4 5V20.138C3.99991 20.4008 4.06884 20.6589 4.1999 20.8867C4.33096 21.1144 4.51955 21.3037 4.74678 21.4357C4.97402 21.5676 5.23192 21.6376 5.49468 21.6385C5.75744 21.6394 6.01584 21.5713 6.244 21.441L11.504 18.435C11.6551 18.3487 11.826 18.3033 12 18.3033C12.174 18.3033 12.3449 18.3487 12.496 18.435L17.756 21.441C17.9842 21.5713 18.2426 21.6394 18.5053 21.6385C18.7681 21.6376 19.026 21.5676 19.2532 21.4357C19.4804 21.3037 19.669 21.1144 19.8001 20.8867C19.9312 20.6589 20.0001 20.4008 20 20.138V5C20 4.20435 19.6839 3.44129 19.1213 2.87868C18.5587 2.31607 17.7956 2 17 2H7Z" fill="#5A59F2"/>
</svg>
