<svg width="20" height="20" viewBox="0 0 20 20" fill="none" xmlns="http://www.w3.org/2000/svg">
<path d="M7.15587 6.86345L9.32087 2.50345C9.38389 2.37727 9.48082 2.27114 9.60078 2.19696C9.72074 2.12279 9.85899 2.0835 10 2.0835C10.1411 2.0835 10.2793 2.12279 10.3993 2.19696C10.5193 2.27114 10.6162 2.37727 10.6792 2.50345L12.8442 6.86345L17.6842 7.56678C17.8238 7.58614 17.9552 7.64436 18.0633 7.73479C18.1714 7.82522 18.2519 7.94423 18.2956 8.07822C18.3393 8.21221 18.3444 8.35579 18.3105 8.49257C18.2765 8.62936 18.2047 8.75383 18.1034 8.85178L14.6017 12.2434L15.4284 17.0351C15.5342 17.6501 14.8842 18.1184 14.3284 17.8284L10 15.5651L5.67087 17.8284C5.11587 18.1193 4.46587 17.6501 4.5717 17.0343L5.39837 12.2426L1.8967 8.85095C1.79586 8.75293 1.72453 8.62858 1.69084 8.49204C1.65714 8.3555 1.66243 8.21225 1.70609 8.07857C1.74976 7.94489 1.83005 7.82613 1.93784 7.73581C2.04564 7.64548 2.17661 7.58721 2.31587 7.56761L7.15587 6.86345Z" stroke="#5A59F2" stroke-width="1.5" stroke-linecap="round" stroke-linejoin="round"/>
</svg>
