<svg width="10" height="10" viewBox="0 0 10 10" fill="none" xmlns="http://www.w3.org/2000/svg">
<path d="M5.62876 1.30781C5.35709 0.814063 4.64209 0.814063 4.37001 1.30781C4.01221 1.95797 3.71726 2.64079 3.48918 3.34698C3.47842 3.37461 3.4595 3.3983 3.43493 3.4149C3.41037 3.4315 3.38132 3.44022 3.35168 3.4399C2.74041 3.45578 2.13114 3.5165 1.52876 3.62156C0.971676 3.71865 0.726259 4.38698 1.14959 4.80073C1.20293 4.85295 1.25681 4.9049 1.31126 4.95656C1.7191 5.34274 2.15093 5.70276 2.60418 6.03448C2.62477 6.04815 2.64037 6.06813 2.64863 6.09142C2.6569 6.11471 2.65738 6.14006 2.65001 6.16365C2.42119 6.85019 2.25769 7.55679 2.16168 8.27406C2.08251 8.8674 2.71084 9.23156 3.20126 8.9799C3.79663 8.67477 4.3659 8.32121 4.90334 7.92281C4.93149 7.9029 4.96512 7.89221 4.99959 7.89221C5.03407 7.89221 5.0677 7.9029 5.09584 7.92281C5.63296 8.32169 6.20228 8.67526 6.79793 8.9799C7.28834 9.23156 7.91668 8.8674 7.83751 8.27406C7.74163 7.55681 7.57827 6.8502 7.34959 6.16365C7.34222 6.14006 7.34271 6.11471 7.35097 6.09142C7.35923 6.06813 7.37483 6.04815 7.39543 6.03448C7.90896 5.6586 8.39492 5.24643 8.84959 4.80115C9.27293 4.38698 9.02751 3.71865 8.47043 3.62156C7.86791 3.51648 7.2585 3.45576 6.64709 3.4399C6.61752 3.44014 6.58856 3.43138 6.56408 3.41478C6.5396 3.39819 6.52074 3.37454 6.51001 3.34698C6.28264 2.64052 5.98725 1.95763 5.62876 1.30781Z" fill="#5A59F2"/>
</svg>
