<svg width="10" height="10" viewBox="0 0 10 10" fill="none" xmlns="http://www.w3.org/2000/svg">
<path d="M3.57842 3.43172L4.66092 1.25172C4.69243 1.18863 4.7409 1.13557 4.80088 1.09848C4.86086 1.06139 4.92998 1.04175 5.00051 1.04175C5.07103 1.04175 5.14015 1.06139 5.20013 1.09848C5.26012 1.13557 5.30858 1.18863 5.34009 1.25172L6.42259 3.43172L8.84259 3.78339C8.91239 3.79307 8.97807 3.82218 9.03212 3.86739C9.08617 3.91261 9.12642 3.97211 9.14827 4.03911C9.17013 4.10611 9.17271 4.1779 9.15571 4.24629C9.13872 4.31468 9.10284 4.37691 9.05217 4.42589L7.30134 6.12172L7.71467 8.51756C7.76759 8.82506 7.44259 9.05922 7.16467 8.91422L5.00051 7.78256L2.83592 8.91422C2.55842 9.05964 2.23342 8.82506 2.28634 8.51714L2.69967 6.12131L0.948839 4.42547C0.898417 4.37646 0.862755 4.31429 0.845908 4.24602C0.82906 4.17775 0.831703 4.10613 0.853535 4.03928C0.875367 3.97244 0.915513 3.91307 0.96941 3.8679C1.02331 3.82274 1.08879 3.79361 1.15842 3.78381L3.57842 3.43172Z" stroke="#5A59F2" stroke-width="0.625" stroke-linecap="round" stroke-linejoin="round"/>
</svg>
