<svg width="20" height="20" viewBox="0 0 20 20" fill="none" xmlns="http://www.w3.org/2000/svg">
<path d="M11.2585 2.61587C10.7152 1.62837 9.28516 1.62837 8.741 2.61587C8.0254 3.91619 7.4355 5.28182 6.97933 6.6942C6.95782 6.74946 6.91997 6.79685 6.87084 6.83005C6.82171 6.86325 6.76362 6.88069 6.70433 6.88004C5.4818 6.91181 4.26325 7.03325 3.0585 7.24337C1.94433 7.43754 1.4535 8.7742 2.30016 9.6017C2.40683 9.70615 2.51461 9.81004 2.6235 9.91337C3.43917 10.6857 4.30284 11.4058 5.20933 12.0692C5.25051 12.0965 5.28171 12.1365 5.29824 12.1831C5.31477 12.2297 5.31574 12.2804 5.301 12.3275C4.84336 13.7006 4.51636 15.1138 4.32433 16.5484C4.166 17.735 5.42266 18.4634 6.4035 17.96C7.59423 17.3498 8.73278 16.6427 9.80766 15.8459C9.86395 15.806 9.93121 15.7847 10.0002 15.7847C10.0691 15.7847 10.1364 15.806 10.1927 15.8459C11.2669 16.6436 12.4055 17.3508 13.5968 17.96C14.5777 18.4634 15.8343 17.735 15.676 16.5484C15.4842 15.1139 15.1575 13.7006 14.7002 12.3275C14.6854 12.2804 14.6864 12.2297 14.7029 12.1831C14.7194 12.1365 14.7506 12.0965 14.7918 12.0692C15.8189 11.3174 16.7908 10.4931 17.7002 9.60254C18.5468 8.7742 18.056 7.43754 16.9418 7.24337C15.7368 7.03321 14.518 6.91177 13.2952 6.88004C13.236 6.88052 13.1781 6.863 13.1291 6.82981C13.0802 6.79662 13.0425 6.74933 13.021 6.6942C12.5663 5.28128 11.9755 3.91551 11.2585 2.61587Z" fill="#5A59F2"/>
</svg>
