<svg width="24" height="24" viewBox="0 0 24 24" fill="none" xmlns="http://www.w3.org/2000/svg">
<path d="M13.5098 3.13899C12.8578 1.95399 11.1418 1.95399 10.4888 3.13899C9.63009 4.69938 8.92221 6.33814 8.3748 8.03299C8.34899 8.0993 8.30357 8.15617 8.24462 8.19601C8.18566 8.23585 8.11596 8.25678 8.0448 8.25599C6.57777 8.29412 5.11551 8.43985 3.6698 8.69199C2.3328 8.92499 1.7438 10.529 2.7598 11.522C2.8878 11.6473 3.01714 11.772 3.1478 11.896C4.12662 12.8228 5.16301 13.6869 6.2508 14.483C6.30022 14.5158 6.33766 14.5638 6.3575 14.6197C6.37733 14.6756 6.37849 14.7364 6.3608 14.793C5.81164 16.4407 5.41924 18.1365 5.1888 19.858C4.9988 21.282 6.5068 22.156 7.6838 21.552C9.11268 20.8197 10.4789 19.9712 11.7688 19.015C11.8364 18.9672 11.9171 18.9416 11.9998 18.9416C12.0825 18.9416 12.1633 18.9672 12.2308 19.015C13.5199 19.9723 14.8863 20.8209 16.3158 21.552C17.4928 22.156 19.0008 21.282 18.8108 19.858C18.5807 18.1366 18.1886 16.4407 17.6398 14.793C17.6221 14.7364 17.6233 14.6756 17.6431 14.6197C17.6629 14.5638 17.7004 14.5158 17.7498 14.483C18.9823 13.5809 20.1486 12.5917 21.2398 11.523C22.2558 10.529 21.6668 8.92499 20.3298 8.69199C18.8838 8.4398 17.4212 8.29408 15.9538 8.25599C15.8828 8.25657 15.8133 8.23555 15.7546 8.19572C15.6958 8.1559 15.6506 8.09914 15.6248 8.03299C15.0791 6.33749 14.3702 4.69857 13.5098 3.13899Z" fill="#5A59F2"/>
</svg>
