<svg width="24" height="25" viewBox="0 0 24 25" fill="none" xmlns="http://www.w3.org/2000/svg">
<path d="M18.9342 15.48C18.6358 15.0033 18.4775 14.4524 18.4772 13.89V9.72602C18.4772 8.00822 17.7948 6.36077 16.5801 5.14609C15.3654 3.93142 13.718 3.24902 12.0002 3.24902C10.2824 3.24902 8.63492 3.93142 7.42024 5.14609C6.20557 6.36077 5.52317 8.00822 5.52317 9.72602V13.888C5.52325 14.4511 5.36488 15.0028 5.06617 15.48L3.97817 17.22C3.88357 17.3714 3.8312 17.5453 3.82652 17.7238C3.82183 17.9022 3.865 18.0787 3.95153 18.2348C4.03806 18.3909 4.16481 18.521 4.31861 18.6116C4.47242 18.7022 4.64767 18.75 4.82617 18.75H19.1742C19.3527 18.75 19.5279 18.7022 19.6817 18.6116C19.8355 18.521 19.9623 18.3909 20.0488 18.2348C20.1354 18.0787 20.1785 17.9022 20.1738 17.7238C20.1691 17.5453 20.1168 17.3714 20.0222 17.22L18.9342 15.48Z" stroke="black" stroke-width="1.5" stroke-linecap="round" stroke-linejoin="round"/>
<path d="M10 21.75H14" stroke="black" stroke-width="1.5" stroke-linecap="round"/>
</svg>
