<svg width="89" height="90" viewBox="0 0 89 90" fill="none" xmlns="http://www.w3.org/2000/svg">
<path d="M70.7323 1H18.2677C8.731 1 1 8.81986 1 18.4662V71.5339C1 81.1801 8.731 89 18.2677 89H70.7323C80.269 89 88 81.1801 88 71.5339V18.4662C88 8.81986 80.269 1 70.7323 1Z" fill="url(#paint0_linear_4281_27627)" stroke="#677EC4" stroke-miterlimit="10"/>
<path d="M74.9897 22.6602L70.1181 22.764C70.2094 27.0756 69.6815 37.8064 67.0251 47.5528C65.5554 52.9449 63.6566 57.2503 61.3806 60.3501C58.8216 63.836 55.9035 65.6979 52.4605 66.0429C49.5515 66.3344 47.4154 65.646 45.9305 63.9382C44.9553 62.8164 44.2798 61.3162 43.834 59.6068C44.5689 58.8346 45.3068 58.0241 46.0477 57.1756C46.072 57.1481 46.0949 57.1191 46.1177 57.0916C46.2653 56.9069 49.7782 52.484 53.2623 46.5546C58.07 38.3741 60.3688 31.5504 60.095 26.2758C59.9489 23.4661 57.7155 21.2057 54.9008 21.0165C51.5705 20.7937 48.9247 22.8708 47.2953 24.6535C44.5217 27.6861 41.987 32.7103 39.7627 39.5875C39.7429 39.647 39.7262 39.708 39.711 39.7691C39.6653 39.9614 38.579 44.5339 38.2839 50.0848C38.1287 53.0182 38.2184 55.66 38.5562 58.0012C35.3886 61.0705 32.3199 63.343 29.5235 64.6754C26.4715 66.1283 23.7954 66.4198 21.9849 65.498C19.0866 64.0206 18.1174 59.3764 19.4578 53.3768C21.2546 45.3276 25.8812 38.6229 29.4474 34.4167C30.7209 32.9149 31.9517 31.6161 33.038 30.5416L33.0228 37.0265L37.8959 37.0356L37.9203 25.0945C37.9203 24.8336 37.8807 24.5695 37.794 24.3131C37.4608 23.318 36.5312 22.6465 35.4845 22.6465H20.7114V27.535H29.1416C28.1132 28.5728 26.9858 29.7831 25.8204 31.1506C18.6575 39.5676 15.8201 47.3025 14.7033 52.31C13.8179 56.2736 13.7677 59.9426 14.5573 62.9202C15.4154 66.1543 17.2198 68.5535 19.7773 69.8569C22.032 71.0061 25.9162 71.8058 31.6124 69.0922C34.3069 67.8087 37.0987 65.8918 39.962 63.3613C40.569 64.8249 41.3343 66.0902 42.2563 67.1509C44.4791 69.7088 47.4824 71 51.1992 71C51.7652 71 52.3479 70.9695 52.9458 70.91C57.7718 70.4277 61.9298 67.8514 65.3059 63.2529C67.9379 59.6663 70.0983 54.8191 71.7263 48.8455C74.5302 38.5573 75.0871 27.2206 74.9897 22.6633V22.6602ZM44.4259 41.0023C46.425 34.8455 48.5991 30.4561 50.8843 27.9577C51.7926 26.9642 53.171 25.7997 54.5737 25.8943C54.9647 25.9202 55.2127 26.2392 55.228 26.5322C55.4486 30.7614 53.3277 36.8082 49.0951 44.0211C46.7247 48.061 44.2874 51.4309 43.0824 53.0349C43.0474 48.296 43.8371 43.4946 44.4243 41.0053L44.4259 41.0023Z" fill="white"/>
<defs>
<linearGradient id="paint0_linear_4281_27627" x1="1" y1="45" x2="88" y2="45" gradientUnits="userSpaceOnUse">
<stop stop-color="#9997F2"/>
<stop offset="1" stop-color="#4341EA"/>
</linearGradient>
</defs>
</svg>
