<svg width="68" height="15" viewBox="0 0 68 15" fill="none" xmlns="http://www.w3.org/2000/svg">
<g clip-path="url(#clip0_4273_36848)">
<path d="M22.8613 14.4272C21.6822 14.4272 20.6623 14.1814 19.8029 13.6895C18.943 13.1976 18.2801 12.5003 17.8142 11.5977C17.3484 10.695 17.1152 9.62483 17.1152 8.38708V8.37076C17.1152 7.133 17.3498 6.06409 17.8183 5.16403C18.2869 4.26396 18.9516 3.56797 19.8116 3.07605C20.6715 2.58412 21.6882 2.33838 22.8613 2.33838C24.0343 2.33838 25.0497 2.58455 25.9068 3.07605C26.764 3.56797 27.4255 4.26396 27.8914 5.16403C28.3572 6.06409 28.5904 7.133 28.5904 8.37076V8.38708C28.5904 9.62483 28.3572 10.695 27.8914 11.5977C27.4255 12.5003 26.7654 13.1976 25.9114 13.6895C25.0574 14.1814 24.0407 14.4272 22.8617 14.4272H22.8613ZM22.8613 13.0812C23.7184 13.0812 24.4558 12.8878 25.0744 12.5016C25.6924 12.1154 26.1688 11.5706 26.5021 10.8677C26.8358 10.1653 27.0027 9.33827 27.0027 8.38665V8.37033C27.0027 7.41355 26.8344 6.58394 26.4979 5.88107C26.1615 5.17864 25.6828 4.63645 25.0616 4.25537C24.4403 3.87429 23.707 3.68354 22.8613 3.68354C22.0155 3.68354 21.2809 3.87429 20.6568 4.25537C20.0328 4.63645 19.551 5.17692 19.2118 5.87678C18.8726 6.57707 18.7029 7.40797 18.7029 8.3699V8.38622C18.7029 9.343 18.8726 10.1726 19.2118 10.8755C19.551 11.5783 20.0314 12.1214 20.6527 12.505C21.274 12.8887 22.01 13.0807 22.8613 13.0807V13.0812Z" fill="#B3BAF1"/>
<path d="M35.0536 14.4272C33.8746 14.4272 32.8547 14.1814 31.9952 13.6895C31.1353 13.1976 30.4725 12.5003 30.0066 11.5977C29.5408 10.695 29.3076 9.62483 29.3076 8.38708V8.37076C29.3076 7.133 29.5421 6.06409 30.0107 5.16403C30.4793 4.26396 31.144 3.56797 32.0039 3.07605C32.8639 2.58412 33.8806 2.33838 35.0536 2.33838C36.2267 2.33838 37.2421 2.58455 38.0992 3.07605C38.9564 3.56797 39.6179 4.26396 40.0837 5.16403C40.5496 6.06409 40.7827 7.133 40.7827 8.37076V8.38708C40.7827 9.62483 40.5496 10.695 40.0837 11.5977C39.6179 12.5003 38.9578 13.1976 38.1038 13.6895C37.2498 14.1814 36.2331 14.4272 35.0541 14.4272H35.0536ZM35.0536 13.0812C35.9108 13.0812 36.6482 12.8878 37.2667 12.5016C37.8848 12.1154 38.3612 11.5706 38.6944 10.8677C39.0282 10.1653 39.195 9.33827 39.195 8.38665V8.37033C39.195 7.41355 39.0268 6.58394 38.6903 5.88107C38.3539 5.17864 37.8752 4.63645 37.2539 4.25537C36.6327 3.87429 35.8994 3.68354 35.0536 3.68354C34.2079 3.68354 33.4732 3.87429 32.8492 4.25537C32.2252 4.63645 31.7434 5.17692 31.4041 5.87678C31.0649 6.57707 30.8953 7.40797 30.8953 8.3699V8.38622C30.8953 9.343 31.0649 10.1726 31.4041 10.8755C31.7434 11.5783 32.2238 12.1214 32.8451 12.505C33.4664 12.8887 34.2024 13.0807 35.0536 13.0807V13.0812Z" fill="#B3BAF1"/>
<path d="M47.4327 14.4271C46.2821 14.4271 45.28 14.1784 44.426 13.6813C43.572 13.1842 42.9119 12.4826 42.4461 11.5774C41.9802 10.6722 41.7471 9.60587 41.7471 8.37886V8.3707C41.7471 7.14369 41.9802 6.07907 42.4461 5.176C42.9119 4.27336 43.5707 3.57478 44.4219 3.07985C45.2731 2.58536 46.2771 2.33789 47.4332 2.33789C48.2959 2.33789 49.0813 2.49213 49.7885 2.80017C50.4957 3.10821 51.0868 3.53784 51.5613 4.08948C52.0359 4.64069 52.3509 5.28684 52.5063 6.02752L52.5237 6.10872H50.9533L50.893 5.93042C50.7321 5.45483 50.4916 5.05055 50.1725 4.71845C49.8534 4.38592 49.4634 4.13072 49.0035 3.95242C48.5432 3.77413 48.0197 3.68477 47.4332 3.68477C46.6048 3.68477 45.8844 3.8781 45.2718 4.26433C44.6592 4.651 44.1846 5.19404 43.8482 5.8939C43.5117 6.59419 43.3435 7.41951 43.3435 8.37113V8.37929C43.3435 9.32533 43.5117 10.1511 43.8482 10.8565C44.1846 11.562 44.6605 12.1093 45.2759 12.4985C45.8912 12.8878 46.6103 13.0824 47.4327 13.0824C48.0138 13.0824 48.5327 12.993 48.9903 12.8147C49.4474 12.6365 49.8401 12.3727 50.1679 12.0242C50.4957 11.6758 50.749 11.2445 50.9273 10.7311L50.9533 10.658H52.5237L52.5063 10.7392C52.3509 11.4851 52.0372 12.1351 51.5659 12.6893C51.0941 13.2435 50.5048 13.6719 49.7972 13.9743C49.0895 14.2768 48.3013 14.4284 47.4332 14.4284L47.4327 14.4271Z" fill="#B3BAF1"/>
<path d="M58.7363 14.4272C57.5572 14.4272 56.5373 14.1814 55.6779 13.6895C54.818 13.1976 54.1551 12.5003 53.6892 11.5977C53.2234 10.695 52.9902 9.62483 52.9902 8.38708V8.37076C52.9902 7.133 53.2248 6.06409 53.6933 5.16403C54.1619 4.26396 54.8266 3.56797 55.6866 3.07605C56.5465 2.58412 57.5632 2.33838 58.7363 2.33838C59.9093 2.33838 60.9247 2.58455 61.7818 3.07605C62.639 3.56797 63.3005 4.26396 63.7664 5.16403C64.2322 6.06409 64.4654 7.133 64.4654 8.37076V8.38708C64.4654 9.62483 64.2322 10.695 63.7664 11.5977C63.3005 12.5003 62.6404 13.1976 61.7864 13.6895C60.9324 14.1814 59.9157 14.4272 58.7367 14.4272H58.7363ZM58.7363 13.0812C59.5934 13.0812 60.3308 12.8878 60.9494 12.5016C61.5674 12.1154 62.0438 11.5706 62.3771 10.8677C62.7108 10.1653 62.8777 9.33827 62.8777 8.38665V8.37033C62.8777 7.41355 62.7094 6.58394 62.3729 5.88107C62.0365 5.17864 61.5578 4.63645 60.9366 4.25537C60.3153 3.87429 59.582 3.68354 58.7363 3.68354C57.8905 3.68354 57.1559 3.87429 56.5318 4.25537C55.9078 4.63645 55.426 5.17692 55.0868 5.87678C54.7475 6.57707 54.5779 7.40797 54.5779 8.3699V8.38622C54.5779 9.343 54.7475 10.1726 55.0868 10.8755C55.426 11.5783 55.9064 12.1214 56.5277 12.505C57.149 12.8887 57.885 13.0807 58.7363 13.0807V13.0812Z" fill="#B3BAF1"/>
<path d="M11.2302 1.97138C12.1056 2.02638 12.8002 2.68572 12.8454 3.50458C12.9217 4.87506 12.2935 6.63193 10.9792 8.72626C10.0356 10.2299 9.08388 11.3542 9.04365 11.4011C9.03544 11.4109 9.02642 11.4209 9.01729 11.4304C8.84779 11.612 8.67904 11.7874 8.51045 11.9558C8.6197 12.3036 8.77407 12.6063 8.98701 12.8356C9.44497 13.3292 10.0901 13.3308 10.5358 13.2888C11.3889 13.2089 12.1168 12.7702 12.7614 11.9479C13.3547 11.191 13.8513 10.1336 14.238 8.80536C14.9434 6.38063 15.0845 3.71078 15.0603 2.63837L16.8425 2.60224C16.8708 3.84424 16.7156 6.64161 15.9577 9.24677C15.5134 10.7749 14.9216 12.0184 14.198 12.9421C13.2507 14.151 12.0782 14.8291 10.7136 14.9567C10.5464 14.9726 10.3861 14.9802 10.2331 14.9802H10.2321C8.90641 14.9802 8.09852 14.4286 7.64229 13.9362C7.443 13.721 7.26942 13.4752 7.12178 13.1999C6.42067 13.7544 5.73399 14.1819 5.06807 14.4792C3.45201 15.2001 2.33469 14.9801 1.68233 14.6686C0.934217 14.3112 0.40767 13.66 0.159865 12.7839C-0.0650478 11.9895 -0.0526049 11.0561 0.196974 10.0104C0.813224 7.42409 2.45121 5.35369 3.73994 4.05536H1.60615V2.37958H6.00459C6.38751 2.37966 6.72719 2.60953 6.84932 2.95087C6.90317 3.10155 6.90628 3.2584 6.86983 3.40595L6.86397 6.56122L5.08076 6.55732L5.08272 5.16767C3.94386 6.30986 2.46826 8.14406 1.93623 10.3767C1.60683 11.7583 1.82467 12.8564 2.48994 13.1745C3.2218 13.5238 4.71047 13.0714 6.57686 11.4069C6.49777 10.8325 6.47803 10.1917 6.51826 9.48798C6.59871 8.07304 6.89534 6.90504 6.90791 6.85517C6.9134 6.83412 6.91915 6.81329 6.92647 6.79267C7.54271 5.00847 8.22112 3.75367 8.99873 2.95673C9.85486 2.07977 10.6844 1.93701 11.2302 1.97138ZM11.0681 3.64228C10.8546 3.65001 10.5879 3.80783 10.3122 4.09052C9.9067 4.50609 9.28709 5.39636 8.6335 7.279V7.27802C8.51739 7.74413 8.35979 8.60433 8.30537 9.53095C9.45193 8.00578 11.1293 5.38011 11.0681 3.64228Z" fill="white" fill-opacity="0.5"/>
<path d="M41.0723 14.282C41.6025 14.282 42.0324 13.878 42.0324 13.3798C42.0324 12.8815 41.6025 12.4775 41.0723 12.4775C40.5421 12.4775 40.1123 12.8815 40.1123 13.3798C40.1123 13.878 40.5421 14.282 41.0723 14.282Z" fill="#B3BAF1"/>
</g>
<defs>
<clipPath id="clip0_4273_36848">
<rect width="68" height="14.96" fill="white" transform="translate(0 0.0200195)"/>
</clipPath>
</defs>
</svg>
