<svg width="375" height="600" viewBox="-200 -100 800 800" fill="none" xmlns="http://www.w3.org/2000/svg">
<!--<g filter="url(#filter0_f_2336_3075)">-->
<path d="M601.785 249.614L556.643 224.091C533.94 264.214 470.527 359.971 393.013 435.111C350.128 476.682 309.25 505.933 271.501 522.052C229.055 540.182 192.189 541.435 158.802 525.892C130.593 512.761 114.805 494.825 110.541 471.058C107.742 455.447 109.751 437.987 115.004 419.854C125.944 416.75 137.12 413.312 148.532 409.54C148.905 409.42 149.272 409.277 149.631 409.149C151.989 408.253 208.28 386.696 272.529 351.136C361.18 302.079 419.467 251.858 445.757 201.891C459.759 175.273 451.662 142.36 426.941 125.323C397.683 105.174 362.134 109.885 337.493 117.413C295.559 130.211 244.937 162.612 187.04 213.73C186.534 214.169 186.048 214.64 185.575 215.118C184.108 216.637 149.205 252.759 116.201 302.172C98.7673 328.289 85.1661 353.058 75.4754 376.412C29.7356 387.405 -10.7501 391.613 -43.6114 388.66C-79.4697 385.426 -105.549 373.56 -117.083 355.248C-135.538 325.917 -119.052 277.964 -74.0339 230.108C-13.6501 165.894 65.2871 129.418 120.882 110.141C140.732 103.26 159.085 98.012 174.891 94.0409L139.349 153.56L183.89 180.13L249.301 70.5129C250.726 68.1142 251.806 65.4725 252.412 62.6446C254.796 51.6878 249.956 40.4634 240.378 34.7743L105.201 -45.518L78.5138 -0.588573L155.652 45.2302C140.576 49.1788 123.653 54.1751 105.523 60.4095C-5.96911 98.8394 -74.1588 154.508 -111.714 194.462C-141.455 226.078 -161.944 259.527 -170.974 291.186C-180.778 325.574 -177.365 357.432 -161.079 383.311C-146.721 406.128 -115.546 434.589 -48.61 440.608C-16.948 443.456 19.0626 441.011 59.077 433.316C56.6413 450.068 56.7366 465.856 59.3822 480.616C65.7571 516.207 86.1891 544.397 120.199 564.598C125.378 567.674 130.876 570.561 136.672 573.263C183.464 595.06 235.575 593.981 291.571 570.066C335.235 551.407 381.466 518.599 428.973 472.544C510.796 393.225 577.78 292.057 601.769 249.642L601.785 249.614ZM221.985 252.078C273.889 206.357 317.745 177.831 352.295 167.289C366.03 163.093 385 159.882 397.319 168.376C400.755 170.74 401.283 175.019 399.822 177.795C378.753 217.864 326.336 261.913 248.229 305.201C204.485 329.448 163.786 347.174 144.004 355.367C169.554 311.622 202.992 271.784 221.955 252.098L221.985 252.078Z" fill="white" fill-opacity="1.00"/>
<!--</g>-->
<defs>
<filter id="filter0_f_2336_3075" x="-187.346" y="-56.4181" width="800.031" height="656.162" filterUnits="userSpaceOnUse" color-interpolation-filters="sRGB">
<feFlood flood-opacity="0" result="BackgroundImageFix"/>
<feBlend mode="normal" in="SourceGraphic" in2="BackgroundImageFix" result="shape"/>
<feGaussianBlur stdDeviation="5.45" result="effect1_foregroundBlur_2336_3075"/>
</filter>
</defs>
</svg>
