<svg width="60" height="60" viewBox="0 0 60 60" fill="none" xmlns="http://www.w3.org/2000/svg">
<g clip-path="url(#clip0_3611_18403)">
<rect width="60" height="60" rx="30" fill="#CCCCCC"/>
<path fill-rule="evenodd" clip-rule="evenodd" d="M29.9998 34.7709C36.088 34.7709 41.0235 29.836 41.0235 23.7484C41.0235 17.6608 36.088 12.7258 29.9998 12.7258C23.9116 12.7258 18.9761 17.6608 18.9761 23.7484C18.9761 29.836 23.9116 34.7709 29.9998 34.7709ZM45.3321 44.6692C49.3986 48.7352 51.683 54.2498 51.683 60H29.9997L8.31641 60C8.31641 54.2498 10.6009 48.7352 14.6673 44.6692C18.7337 40.6032 24.249 38.3189 29.9997 38.3189C35.7505 38.3189 41.2657 40.6032 45.3321 44.6692Z" fill="white"/>
</g>
<defs>
<clipPath id="clip0_3611_18403">
<rect width="60" height="60" rx="30" fill="white"/>
</clipPath>
</defs>
</svg>
