<svg width="16" height="16" viewBox="0 0 16 16" fill="none" xmlns="http://www.w3.org/2000/svg">
<path d="M12.6663 2.66659H11.333V1.99992C11.333 1.82311 11.2628 1.65354 11.1377 1.52851C11.0127 1.40349 10.8432 1.33325 10.6663 1.33325C10.4895 1.33325 10.32 1.40349 10.1949 1.52851C10.0699 1.65354 9.99967 1.82311 9.99967 1.99992V2.66659H5.99967V1.99992C5.99967 1.82311 5.92944 1.65354 5.80441 1.52851C5.67939 1.40349 5.50982 1.33325 5.33301 1.33325C5.1562 1.33325 4.98663 1.40349 4.8616 1.52851C4.73658 1.65354 4.66634 1.82311 4.66634 1.99992V2.66659H3.33301C2.80257 2.66659 2.29387 2.8773 1.91879 3.25237C1.54372 3.62744 1.33301 4.13615 1.33301 4.66658V12.6666C1.33301 13.197 1.54372 13.7057 1.91879 14.0808C2.29387 14.4559 2.80257 14.6666 3.33301 14.6666H12.6663C13.1968 14.6666 13.7055 14.4559 14.0806 14.0808C14.4556 13.7057 14.6663 13.197 14.6663 12.6666V4.66658C14.6663 4.13615 14.4556 3.62744 14.0806 3.25237C13.7055 2.8773 13.1968 2.66659 12.6663 2.66659ZM13.333 12.6666C13.333 12.8434 13.2628 13.013 13.1377 13.138C13.0127 13.263 12.8432 13.3333 12.6663 13.3333H3.33301C3.1562 13.3333 2.98663 13.263 2.8616 13.138C2.73658 13.013 2.66634 12.8434 2.66634 12.6666V7.99992H13.333V12.6666ZM13.333 6.66658H2.66634V4.66658C2.66634 4.48977 2.73658 4.3202 2.8616 4.19518C2.98663 4.07016 3.1562 3.99992 3.33301 3.99992H4.66634V4.66658C4.66634 4.8434 4.73658 5.01297 4.8616 5.13799C4.98663 5.26301 5.1562 5.33325 5.33301 5.33325C5.50982 5.33325 5.67939 5.26301 5.80441 5.13799C5.92944 5.01297 5.99967 4.8434 5.99967 4.66658V3.99992H9.99967V4.66658C9.99967 4.8434 10.0699 5.01297 10.1949 5.13799C10.32 5.26301 10.4895 5.33325 10.6663 5.33325C10.8432 5.33325 11.0127 5.26301 11.1377 5.13799C11.2628 5.01297 11.333 4.8434 11.333 4.66658V3.99992H12.6663C12.8432 3.99992 13.0127 4.07016 13.1377 4.19518C13.2628 4.3202 13.333 4.48977 13.333 4.66658V6.66658Z" fill="#5A59F2"/>
</svg>
