<svg width="16" height="16" viewBox="0 0 16 16" fill="none" xmlns="http://www.w3.org/2000/svg">
<path d="M6.22255 6.2223V4.56304C6.22255 3.89934 6.22255 3.56749 6.35173 3.31386C6.46551 3.09045 6.64625 2.90971 6.86966 2.79593C7.12329 2.66675 7.45514 2.66675 8.11884 2.66675H11.4374C12.1011 2.66675 12.4329 2.66675 12.6865 2.79593C12.9095 2.90956 13.0908 3.09086 13.2045 3.31386C13.3337 3.56749 13.3337 3.89934 13.3337 4.56304V7.88156C13.3337 8.54527 13.3337 8.87712 13.2045 9.13075C13.0908 9.35375 12.9095 9.53505 12.6865 9.64867C12.4329 9.77786 12.1011 9.77786 11.4391 9.77786H9.7781M6.22255 6.2223H4.56329C3.89958 6.2223 3.56773 6.2223 3.3141 6.35149C3.09111 6.46512 2.9098 6.64642 2.79618 6.86941C2.66699 7.12304 2.66699 7.4549 2.66699 8.1186V11.4371C2.66699 12.1008 2.66699 12.4327 2.79618 12.6863C2.9098 12.9093 3.09111 13.0906 3.3141 13.2042C3.56714 13.3334 3.89899 13.3334 4.56151 13.3334H7.88418C8.5461 13.3334 8.87736 13.3334 9.13099 13.2042C9.35399 13.0906 9.53529 12.9093 9.64892 12.6863C9.7781 12.4327 9.7781 12.1014 9.7781 11.4389V9.77786M6.22255 6.2223H7.88181C8.54551 6.2223 8.87736 6.2223 9.13099 6.35149C9.35399 6.46512 9.53529 6.64642 9.64892 6.86941C9.7781 7.12245 9.7781 7.4543 9.7781 8.11682V9.77786" stroke="#5A59F2" stroke-linecap="round" stroke-linejoin="round"/>
</svg>
